<?xml version="1.0" encoding="UTF-8"?>
<svg version="1.1" xmlns="http://www.w3.org/2000/svg" width="32" height="32">
<path d="M0 0 C10.56 0 21.12 0 32 0 C32 10.56 32 21.12 32 32 C21.44 32 10.88 32 0 32 C0 21.44 0 10.88 0 0 Z " fill="#DAA228" transform="translate(0,0)"/>
<path d="M0 0 C2.5 0.25 2.5 0.25 4.5 2.25 C4.6875 4.8125 4.6875 4.8125 4.5 7.25 C4.17 7.58 3.84 7.91 3.5 8.25 C4.49 8.25 5.48 8.25 6.5 8.25 C6.17 7.92 5.84 7.59 5.5 7.25 C5.3125 4.8125 5.3125 4.8125 5.5 2.25 C7.5 0.25 7.5 0.25 10 0 C12.5 0.25 12.5 0.25 14.5 2.25 C14.88286803 5.98296326 14.64915785 7.02626323 12.5 10.25 C12.5 10.91 12.5 11.57 12.5 12.25 C13.49 12.25 14.48 12.25 15.5 12.25 C15.5 13.57 15.5 14.89 15.5 16.25 C12.36501708 18.10776765 10.12528568 18.45140476 6.5 18.25 C7.16 20.56 7.82 22.87 8.5 25.25 C7.51 24.26 6.52 23.27 5.5 22.25 C4.84 23.24 4.18 24.23 3.5 25.25 C3.17 24.26 2.84 23.27 2.5 22.25 C1.51 23.24 0.52 24.23 -0.5 25.25 C0.49 21.785 0.49 21.785 1.5 18.25 C-0.15 18.25 -1.8 18.25 -3.5 18.25 C-3.48839844 17.53972656 -3.47679687 16.82945313 -3.46484375 16.09765625 C-3.45582031 15.17855469 -3.44679688 14.25945313 -3.4375 13.3125 C-3.42009766 11.93771484 -3.42009766 11.93771484 -3.40234375 10.53515625 C-3.24050951 8.28406673 -3.24050951 8.28406673 -4.5 7.25 C-4.6875 4.8125 -4.6875 4.8125 -4.5 2.25 C-2.5 0.25 -2.5 0.25 0 0 Z " fill="#1A1E1B" transform="translate(10.5,3.75)"/>
<path d="M0 0 C2.5 0.25 2.5 0.25 4.5 2.25 C4.6875 4.8125 4.6875 4.8125 4.5 7.25 C4.17 7.58 3.84 7.91 3.5 8.25 C4.49 8.25 5.48 8.25 6.5 8.25 C6.17 7.92 5.84 7.59 5.5 7.25 C5.3125 4.8125 5.3125 4.8125 5.5 2.25 C7.5 0.25 7.5 0.25 10 0 C12.5 0.25 12.5 0.25 14.5 2.25 C14.84770103 4.96206803 14.94776096 6.57024696 13.421875 8.88671875 C10.49817515 10.96064405 7.9718213 10.6469296 4.4375 10.625 C2.56384766 10.63660156 2.56384766 10.63660156 0.65234375 10.6484375 C-0.38792969 10.51695313 -1.42820312 10.38546875 -2.5 10.25 C-4.64915785 7.02626323 -4.88286803 5.98296326 -4.5 2.25 C-2.5 0.25 -2.5 0.25 0 0 Z " fill="#52441B" transform="translate(10.5,3.75)"/>
<path d="M0 0 C1.65 0 3.3 0 5 0 C5.66 2.31 6.32 4.62 7 7 C6.01 6.01 5.02 5.02 4 4 C3.01 5.485 3.01 5.485 2 7 C1.67 6.01 1.34 5.02 1 4 C0.01 4.99 -0.98 5.98 -2 7 C-1.34 4.69 -0.68 2.38 0 0 Z " fill="#3B351B" transform="translate(12,22)"/>
<path d="M0 0 C1.32 0.66 2.64 1.32 4 2 C4 2.99 4 3.98 4 5 C3.34 5 2.68 5 2 5 C2 5.66 2 6.32 2 7 C1.01 7 0.02 7 -1 7 C-1 6.34 -1 5.68 -1 5 C-1.66 5 -2.32 5 -3 5 C-1.125 1.125 -1.125 1.125 0 0 Z " fill="#916F1D" transform="translate(20,5)"/>
<path d="M0 0 C0.33 0.66 0.66 1.32 1 2 C1.99 2 2.98 2 4 2 C4 3.32 4 4.64 4 6 C2.68 6.33 1.36 6.66 0 7 C0 4.69 0 2.38 0 0 Z " fill="#443B1C" transform="translate(22,14)"/>
</svg>
